<mxfile host="app.diagrams.net" modified="2023-10-29T16:13:20.948Z" agent="Mozilla/5.0 (Windows NT 10.0; Win64; x64; rv:109.0) Gecko/20100101 Firefox/119.0" etag="cWDFXSOucl6UHoPB8p54" version="22.0.0" type="device">
  <diagram name="Strona-1" id="oetVzceQHpRXCima8oXP">
    <mxGraphModel dx="1434" dy="782" grid="1" gridSize="10" guides="1" tooltips="1" connect="1" arrows="1" fold="1" page="1" pageScale="1" pageWidth="827" pageHeight="1169" math="0" shadow="0">
      <root>
        <mxCell id="0" />
        <mxCell id="1" parent="0" />
        <mxCell id="r8XdS0BeGojSjV3rh1AG-1" value="" style="rounded=0;whiteSpace=wrap;html=1;dashed=1;" vertex="1" parent="1">
          <mxGeometry x="400" y="160" width="560" height="340" as="geometry" />
        </mxCell>
        <mxCell id="r8XdS0BeGojSjV3rh1AG-2" value="&lt;font size=&quot;1&quot;&gt;&lt;b style=&quot;font-size: 15px;&quot;&gt;Supabase&lt;/b&gt;&lt;/font&gt;" style="text;html=1;strokeColor=none;fillColor=none;align=center;verticalAlign=middle;whiteSpace=wrap;rounded=0;" vertex="1" parent="1">
          <mxGeometry x="640" y="170" width="60" height="30" as="geometry" />
        </mxCell>
        <mxCell id="r8XdS0BeGojSjV3rh1AG-4" value="" style="rounded=0;whiteSpace=wrap;html=1;" vertex="1" parent="1">
          <mxGeometry x="420" y="270" width="150" height="150" as="geometry" />
        </mxCell>
        <mxCell id="r8XdS0BeGojSjV3rh1AG-5" value="&lt;b&gt;PostgREST Web Server&lt;/b&gt;" style="text;html=1;strokeColor=none;fillColor=none;align=center;verticalAlign=middle;whiteSpace=wrap;rounded=0;" vertex="1" parent="1">
          <mxGeometry x="457.5" y="320" width="75" height="60" as="geometry" />
        </mxCell>
        <mxCell id="r8XdS0BeGojSjV3rh1AG-6" value="" style="rounded=0;whiteSpace=wrap;html=1;" vertex="1" parent="1">
          <mxGeometry x="600" y="210" width="340" height="270" as="geometry" />
        </mxCell>
        <mxCell id="r8XdS0BeGojSjV3rh1AG-7" value="&lt;b&gt;PostgreSQL database&lt;/b&gt;" style="text;html=1;strokeColor=none;fillColor=none;align=center;verticalAlign=middle;whiteSpace=wrap;rounded=0;" vertex="1" parent="1">
          <mxGeometry x="680" y="220" width="160" height="30" as="geometry" />
        </mxCell>
        <mxCell id="r8XdS0BeGojSjV3rh1AG-8" value="" style="rounded=0;whiteSpace=wrap;html=1;" vertex="1" parent="1">
          <mxGeometry x="620" y="370" width="300" height="65" as="geometry" />
        </mxCell>
        <mxCell id="r8XdS0BeGojSjV3rh1AG-9" value="Tables" style="text;html=1;strokeColor=none;fillColor=none;align=center;verticalAlign=middle;whiteSpace=wrap;rounded=0;" vertex="1" parent="1">
          <mxGeometry x="730" y="387.5" width="60" height="30" as="geometry" />
        </mxCell>
        <mxCell id="r8XdS0BeGojSjV3rh1AG-10" value="" style="rounded=0;whiteSpace=wrap;html=1;" vertex="1" parent="1">
          <mxGeometry x="620" y="267.5" width="300" height="75" as="geometry" />
        </mxCell>
        <mxCell id="r8XdS0BeGojSjV3rh1AG-11" value="Database functions and views " style="text;html=1;strokeColor=none;fillColor=none;align=center;verticalAlign=middle;whiteSpace=wrap;rounded=0;" vertex="1" parent="1">
          <mxGeometry x="680" y="290" width="180" height="30" as="geometry" />
        </mxCell>
        <mxCell id="r8XdS0BeGojSjV3rh1AG-12" value="&lt;b&gt;&lt;font style=&quot;font-size: 14px;&quot;&gt;React web application&lt;/font&gt;&lt;/b&gt;" style="rounded=0;whiteSpace=wrap;html=1;" vertex="1" parent="1">
          <mxGeometry x="110" y="255" width="220" height="180" as="geometry" />
        </mxCell>
        <mxCell id="r8XdS0BeGojSjV3rh1AG-13" value="" style="endArrow=classic;html=1;rounded=0;exitX=1;exitY=0.5;exitDx=0;exitDy=0;entryX=0;entryY=0.5;entryDx=0;entryDy=0;" edge="1" parent="1" source="r8XdS0BeGojSjV3rh1AG-12" target="r8XdS0BeGojSjV3rh1AG-4">
          <mxGeometry width="50" height="50" relative="1" as="geometry">
            <mxPoint x="390" y="420" as="sourcePoint" />
            <mxPoint x="440" y="370" as="targetPoint" />
          </mxGeometry>
        </mxCell>
        <mxCell id="r8XdS0BeGojSjV3rh1AG-14" value="" style="endArrow=classic;html=1;rounded=0;exitX=1;exitY=0.333;exitDx=0;exitDy=0;exitPerimeter=0;entryX=0;entryY=0.5;entryDx=0;entryDy=0;" edge="1" parent="1" source="r8XdS0BeGojSjV3rh1AG-4" target="r8XdS0BeGojSjV3rh1AG-10">
          <mxGeometry width="50" height="50" relative="1" as="geometry">
            <mxPoint x="390" y="420" as="sourcePoint" />
            <mxPoint x="440" y="370" as="targetPoint" />
          </mxGeometry>
        </mxCell>
        <mxCell id="r8XdS0BeGojSjV3rh1AG-17" value="" style="endArrow=classic;html=1;rounded=0;exitX=1;exitY=0.75;exitDx=0;exitDy=0;entryX=0;entryY=0.5;entryDx=0;entryDy=0;" edge="1" parent="1" source="r8XdS0BeGojSjV3rh1AG-4" target="r8XdS0BeGojSjV3rh1AG-8">
          <mxGeometry width="50" height="50" relative="1" as="geometry">
            <mxPoint x="390" y="420" as="sourcePoint" />
            <mxPoint x="440" y="370" as="targetPoint" />
          </mxGeometry>
        </mxCell>
      </root>
    </mxGraphModel>
  </diagram>
</mxfile>
